<svg version="1.1" xmlns="http://www.w3.org/2000/svg" xmlns:xlink="http://www.w3.org/1999/xlink" width="1050" height="673"><defs/><g><g transform="translate(-8,2) scale(1,1)"><rect fill="#C0C0C0" stroke="none" x="591" y="55" width="135.703125" height="104" opacity="0.2"/></g><g transform="translate(-8,2) scale(1,1)"><rect fill="#ff6dff" stroke="none" x="584" y="48" width="135.703125" height="104"/></g><g transform="translate(-8,2) scale(1,1)"><path fill="none" stroke="#000000" d="M 584 48 L 719.703125 48 L 719.703125 152 L 584 152 L 584 48 Z Z" stroke-miterlimit="10"/></g><g transform="translate(-8,2) scale(1,1)"><path fill="none" stroke="#000000" d="M 584 76 L 719.703125 76" stroke-miterlimit="10"/></g><g transform="translate(-8,2) scale(1,1)"><path fill="none" stroke="#000000" d="M 584 86 L 719.703125 86" stroke-miterlimit="10"/></g><g transform="translate(-8,2) scale(1,1)"><g><path fill="none" stroke="none"/><text fill="#000000" stroke="none" font-family="Arial" font-size="16px" font-style="normal" font-weight="bold" text-decoration="none" x="619.40625" y="70.5">RailsIHM</text></g></g><g transform="translate(-8,2) scale(1,1)"><g><path fill="none" stroke="none"/><text fill="#000000" stroke="none" font-family="Arial" font-size="16px" font-style="normal" font-weight="normal" text-decoration="none" x="589" y="106.5">+start(Stage)</text></g></g><g transform="translate(-8,2) scale(1,1)"><g><path fill="none" stroke="none"/><text fill="#000000" stroke="none" font-family="Arial" font-size="16px" font-style="normal" font-weight="normal" text-decoration="none" x="589" y="124.5">+demarrerPartie()</text></g></g><g transform="translate(-8,2) scale(1,1)"><rect fill="#C0C0C0" stroke="none" x="599" y="191" width="88.1640625" height="53" opacity="0.2"/></g><g transform="translate(-8,2) scale(1,1)"><rect fill="#a3e0ff" stroke="none" x="592" y="184" width="88.1640625" height="53"/></g><g transform="translate(-8,2) scale(1,1)"><path fill="none" stroke="#000000" d="M 592 184 L 680.1640625 184 L 680.1640625 237 L 592 237 L 592 184 Z Z" stroke-miterlimit="10"/></g><g transform="translate(-8,2) scale(1,1)"><path fill="none" stroke="#000000" d="M 592 228 L 680.1640625 228" stroke-miterlimit="10"/></g><g transform="translate(-8,2) scale(1,1)"><g><path fill="none" stroke="none"/><text fill="#000000" stroke="none" font-family="Arial" font-size="16px" font-style="normal" font-weight="normal" text-decoration="none" x="596.5" y="204.5">«interface»</text></g></g><g transform="translate(-8,2) scale(1,1)"><g><path fill="none" stroke="none"/><text fill="#000000" stroke="none" font-family="Arial" font-size="16px" font-style="normal" font-weight="bold" text-decoration="none" x="620.9609375" y="222.5">IJeu</text></g></g><g transform="translate(-8,2) scale(1,1)"><rect fill="#C0C0C0" stroke="none" x="25" y="15" width="190.8" height="15" opacity="0.2"/></g><g transform="translate(-8,2) scale(1,1)"><rect fill="#C0C0C0" stroke="none" x="25" y="29" width="477" height="626" opacity="0.2"/></g><g transform="translate(-8,2) scale(1,1)"><rect fill="#ffffff" stroke="none" x="18" y="23" width="477" height="625"/></g><g transform="translate(-8,2) scale(1,1)"><path fill="none" stroke="#000000" d="M 18 23 L 495 23 L 495 648 L 18 648 L 18 23 Z Z" stroke-miterlimit="10"/></g><g transform="translate(-8,2) scale(1,1)"><rect fill="#ffffff" stroke="none" x="18" y="8" width="190.8" height="15"/></g><g transform="translate(-8,2) scale(1,1)"><path fill="none" stroke="#000000" d="M 18 8 L 208.8 8 L 208.8 23 L 18 23 L 18 8 Z Z" stroke-miterlimit="10"/></g><g transform="translate(-8,2) scale(1,1)"><rect fill="#ffffff" stroke="none" x="18" y="22" width="477" height="626"/></g><g transform="translate(-8,2) scale(1,1)"><path fill="none" stroke="#000000" d="M 18 22 L 495 22 L 495 648 L 18 648 L 18 22 Z Z" stroke-miterlimit="10"/></g><g transform="translate(-8,2) scale(1,1)"><g><path fill="none" stroke="none"/><text fill="#000000" stroke="none" font-family="Arial" font-size="16px" font-style="normal" font-weight="bold" text-decoration="none" x="239.6015625" y="45.5">vues</text></g></g><g transform="translate(-8,2) scale(1,1)"><rect fill="#C0C0C0" stroke="none" x="255" y="543" width="94.6640625" height="80" opacity="0.2"/></g><g transform="translate(-8,2) scale(1,1)"><rect fill="#d1ffa3" stroke="none" x="248" y="536" width="94.6640625" height="80"/></g><g transform="translate(-8,2) scale(1,1)"><path fill="none" stroke="#000000" d="M 248 536 L 342.6640625 536 L 342.6640625 616 L 248 616 L 248 536 Z Z" stroke-miterlimit="10"/></g><g transform="translate(-8,2) scale(1,1)"><path fill="none" stroke="#000000" d="M 248 564 L 342.6640625 564" stroke-miterlimit="10"/></g><g transform="translate(-8,2) scale(1,1)"><path fill="none" stroke="#000000" d="M 248 574 L 342.6640625 574" stroke-miterlimit="10"/></g><g transform="translate(-8,2) scale(1,1)"><g><path fill="none" stroke="none"/><text fill="#000000" stroke="none" font-family="Arial" font-size="16px" font-style="normal" font-weight="bold" text-decoration="none" x="254.26171875" y="558.5">VuePlateau</text></g></g><g transform="translate(-8,2) scale(1,1)"><rect fill="#C0C0C0" stroke="none" x="143" y="367" width="152.421875" height="47" opacity="0.2"/></g><g transform="translate(-8,2) scale(1,1)"><rect fill="#d1ffa3" stroke="none" x="136" y="360" width="152.421875" height="47"/></g><g transform="translate(-8,2) scale(1,1)"><path fill="none" stroke="#000000" d="M 136 360 L 288.421875 360 L 288.421875 407 L 136 407 L 136 360 Z Z" stroke-miterlimit="10"/></g><g transform="translate(-8,2) scale(1,1)"><path fill="none" stroke="#000000" d="M 136 388 L 288.421875 388" stroke-miterlimit="10"/></g><g transform="translate(-8,2) scale(1,1)"><path fill="none" stroke="#000000" d="M 136 398 L 288.421875 398" stroke-miterlimit="10"/></g><g transform="translate(-8,2) scale(1,1)"><g><path fill="none" stroke="none"/><text fill="#000000" stroke="none" font-family="Arial" font-size="16px" font-style="normal" font-weight="bold" text-decoration="none" x="145.3515625" y="382.5">VueJoueurCourant</text></g></g><g transform="translate(-8,2) scale(1,1)"><rect fill="#C0C0C0" stroke="none" x="47" y="287" width="150.671875" height="47" opacity="0.2"/></g><g transform="translate(-8,2) scale(1,1)"><rect fill="#d1ffa3" stroke="none" x="40" y="280" width="150.671875" height="47"/></g><g transform="translate(-8,2) scale(1,1)"><path fill="none" stroke="#000000" d="M 40 280 L 190.671875 280 L 190.671875 327 L 40 327 L 40 280 Z Z" stroke-miterlimit="10"/></g><g transform="translate(-8,2) scale(1,1)"><path fill="none" stroke="#000000" d="M 40 308 L 190.671875 308" stroke-miterlimit="10"/></g><g transform="translate(-8,2) scale(1,1)"><path fill="none" stroke="#000000" d="M 40 318 L 190.671875 318" stroke-miterlimit="10"/></g><g transform="translate(-8,2) scale(1,1)"><g><path fill="none" stroke="none"/><text fill="#000000" stroke="none" font-family="Arial" font-size="16px" font-style="normal" font-weight="bold" text-decoration="none" x="49.81640625" y="302.5">VueAutresJoueurs</text></g></g><g transform="translate(-8,2) scale(1,1)"><rect fill="#C0C0C0" stroke="none" x="159" y="463" width="124.8671875" height="47" opacity="0.2"/></g><g transform="translate(-8,2) scale(1,1)"><rect fill="#d1ffa3" stroke="none" x="152" y="456" width="124.8671875" height="47"/></g><g transform="translate(-8,2) scale(1,1)"><path fill="none" stroke="#000000" d="M 152 456 L 276.8671875 456 L 276.8671875 503 L 152 503 L 152 456 Z Z" stroke-miterlimit="10"/></g><g transform="translate(-8,2) scale(1,1)"><path fill="none" stroke="#000000" d="M 152 484 L 276.8671875 484" stroke-miterlimit="10"/></g><g transform="translate(-8,2) scale(1,1)"><path fill="none" stroke="#000000" d="M 152 494 L 276.8671875 494" stroke-miterlimit="10"/></g><g transform="translate(-8,2) scale(1,1)"><g><path fill="none" stroke="none"/><text fill="#000000" stroke="none" font-family="Arial" font-size="16px" font-style="normal" font-weight="bold" text-decoration="none" x="160.47265625" y="478.5">VueDestination</text></g></g><g transform="translate(-8,2) scale(1,1)"><rect fill="#C0C0C0" stroke="none" x="335" y="391" width="131.3828125" height="55" opacity="0.2"/></g><g transform="translate(-8,2) scale(1,1)"><rect fill="#d1ffa3" stroke="none" x="328" y="384" width="131.3828125" height="55"/></g><g transform="translate(-8,2) scale(1,1)"><path fill="none" stroke="#000000" d="M 328 384 L 459.3828125 384 L 459.3828125 439 L 328 439 L 328 384 Z Z" stroke-miterlimit="10"/></g><g transform="translate(-8,2) scale(1,1)"><path fill="none" stroke="#000000" d="M 328 412 L 459.3828125 412" stroke-miterlimit="10"/></g><g transform="translate(-8,2) scale(1,1)"><path fill="none" stroke="#000000" d="M 328 422 L 459.3828125 422" stroke-miterlimit="10"/></g><g transform="translate(-8,2) scale(1,1)"><g><path fill="none" stroke="none"/><text fill="#000000" stroke="none" font-family="Arial" font-size="16px" font-style="normal" font-weight="bold" text-decoration="none" x="335.140625" y="406.5">VueCarteWagon</text></g></g><g transform="translate(-8,2) scale(1,1)"><rect fill="#C0C0C0" stroke="none" x="135" y="167" width="230.3046875" height="88" opacity="0.2"/></g><g transform="translate(-8,2) scale(1,1)"><rect fill="#d1ffa3" stroke="none" x="128" y="160" width="230.3046875" height="88"/></g><g transform="translate(-8,2) scale(1,1)"><path fill="none" stroke="#000000" d="M 128 160 L 358.3046875 160 L 358.3046875 248 L 128 248 L 128 160 Z Z" stroke-miterlimit="10"/></g><g transform="translate(-8,2) scale(1,1)"><path fill="none" stroke="#000000" d="M 128 188 L 358.3046875 188" stroke-miterlimit="10"/></g><g transform="translate(-8,2) scale(1,1)"><path fill="none" stroke="#000000" d="M 128 198 L 358.3046875 198" stroke-miterlimit="10"/></g><g transform="translate(-8,2) scale(1,1)"><g><path fill="none" stroke="none"/><text fill="#000000" stroke="none" font-family="Arial" font-size="16px" font-style="normal" font-weight="bold" text-decoration="none" x="206.08984375" y="182.5">VueDuJeu</text></g></g><g transform="translate(-8,2) scale(1,1)"><g><path fill="none" stroke="none"/><text fill="#000000" stroke="none" font-family="Arial" font-size="16px" font-style="normal" font-weight="normal" text-decoration="none" x="133" y="218.5">«constructor»+VueDuJeu(IJeu)</text></g></g><g transform="translate(-8,2) scale(1,1)"><g><path fill="none" stroke="none"/><text fill="#000000" stroke="none" font-family="Arial" font-size="16px" font-style="normal" font-weight="normal" text-decoration="none" x="133" y="236.5">+creerBindings()</text></g></g><g transform="translate(-8,2) scale(1,1)"><path fill="none" stroke="#000000" d="M 358 176 L 448 176 L 448 120 L 584 120" stroke-miterlimit="10"/></g><g transform="translate(-8,2) scale(1,1)"><path fill="#000000" stroke="none" d="M 573.8373251423759 124.20951775601598 L 584 120 L 573.8373251423758 115.79048224398402 L 562 120"/></g><g transform="translate(-8,2) scale(1,1)"><path fill="none" stroke="#000000" d="M 573.8373251423759 124.20951775601598 L 584 120 L 573.8373251423758 115.79048224398402 L 562 120 L 573.8373251423759 124.20951775601598" stroke-miterlimit="10"/></g><g transform="translate(-8,2) scale(1,1)"><path fill="none" stroke="#000000" d="M 358 216 L 592 216" stroke-miterlimit="10"/></g><g transform="translate(-8,2) scale(1,1)"><path fill="none" stroke="#000000" d="M 581.8373251423759 220.209517756016 L 592 216 L 581.8373251423758 211.790482243984" stroke-miterlimit="10"/></g><g transform="translate(-8,2) scale(1,1)"><rect fill="#C0C0C0" stroke="none" x="159" y="79" width="144.4375" height="47" opacity="0.2"/></g><g transform="translate(-8,2) scale(1,1)"><rect fill="#d1ffa3" stroke="none" x="152" y="72" width="144.4375" height="47"/></g><g transform="translate(-8,2) scale(1,1)"><path fill="none" stroke="#000000" d="M 152 72 L 296.4375 72 L 296.4375 119 L 152 119 L 152 72 Z Z" stroke-miterlimit="10"/></g><g transform="translate(-8,2) scale(1,1)"><path fill="none" stroke="#000000" d="M 152 100 L 296.4375 100" stroke-miterlimit="10"/></g><g transform="translate(-8,2) scale(1,1)"><path fill="none" stroke="#000000" d="M 152 110 L 296.4375 110" stroke-miterlimit="10"/></g><g transform="translate(-8,2) scale(1,1)"><g><path fill="none" stroke="none"/><text fill="#000000" stroke="none" font-family="Arial" font-size="16px" font-style="normal" font-weight="bold" text-decoration="none" x="161.3671875" y="94.5">VueChoixJoueurs</text></g></g><g transform="translate(-8,2) scale(1,1)"><path fill="none" stroke="#000000" d="M 584 96 L 296 96" stroke-miterlimit="10"/></g><g transform="translate(-8,2) scale(1,1)"><path fill="none" stroke="#000000" d="M 306.16267485762415 91.79048224398402 L 296 96 L 306.16267485762415 100.20951775601598" stroke-miterlimit="10"/></g><g transform="translate(-8,2) scale(1,1)"><rect fill="#C0C0C0" stroke="none" x="825" y="15" width="92" height="15" opacity="0.2"/></g><g transform="translate(-8,2) scale(1,1)"><rect fill="#C0C0C0" stroke="none" x="825" y="29" width="230" height="634" opacity="0.2"/></g><g transform="translate(-8,2) scale(1,1)"><rect fill="#c6c6c6" stroke="none" x="818" y="23" width="230" height="633"/></g><g transform="translate(-8,2) scale(1,1)"><path fill="none" stroke="#000000" d="M 818 23 L 1048 23 L 1048 656 L 818 656 L 818 23 Z Z" stroke-miterlimit="10"/></g><g transform="translate(-8,2) scale(1,1)"><rect fill="#c6c6c6" stroke="none" x="818" y="8" width="92" height="15"/></g><g transform="translate(-8,2) scale(1,1)"><path fill="none" stroke="#000000" d="M 818 8 L 910 8 L 910 23 L 818 23 L 818 8 Z Z" stroke-miterlimit="10"/></g><g transform="translate(-8,2) scale(1,1)"><rect fill="#c6c6c6" stroke="none" x="818" y="22" width="230" height="634"/></g><g transform="translate(-8,2) scale(1,1)"><path fill="none" stroke="#000000" d="M 818 22 L 1048 22 L 1048 656 L 818 656 L 818 22 Z Z" stroke-miterlimit="10"/></g><g transform="translate(-8,2) scale(1,1)"><g><path fill="none" stroke="none"/><text fill="#000000" stroke="none" font-family="Arial" font-size="16px" font-style="normal" font-weight="bold" text-decoration="none" x="918.33203125" y="45.5">rails</text></g></g><g transform="translate(-8,2) scale(1,1)"><rect fill="#C0C0C0" stroke="none" x="863" y="71" width="114.8359375" height="47" opacity="0.2"/></g><g transform="translate(-8,2) scale(1,1)"><rect fill="#ffffff" stroke="none" x="856" y="64" width="114.8359375" height="47"/></g><g transform="translate(-8,2) scale(1,1)"><path fill="none" stroke="#000000" d="M 856 64 L 970.8359375 64 L 970.8359375 111 L 856 111 L 856 64 Z Z" stroke-miterlimit="10"/></g><g transform="translate(-8,2) scale(1,1)"><path fill="none" stroke="#000000" d="M 856 92 L 970.8359375 92" stroke-miterlimit="10"/></g><g transform="translate(-8,2) scale(1,1)"><path fill="none" stroke="#000000" d="M 856 102 L 970.8359375 102" stroke-miterlimit="10"/></g><g transform="translate(-8,2) scale(1,1)"><g><path fill="none" stroke="none"/><text fill="#000000" stroke="none" font-family="Arial" font-size="16px" font-style="normal" font-weight="bold" text-decoration="none" x="863.6171875" y="86.5">ServiceDuJeu</text></g></g><g transform="translate(-8,2) scale(1,1)"><rect fill="#C0C0C0" stroke="none" x="887" y="191" width="60.59375" height="47" opacity="0.2"/></g><g transform="translate(-8,2) scale(1,1)"><rect fill="#ffffff" stroke="none" x="880" y="184" width="60.59375" height="47"/></g><g transform="translate(-8,2) scale(1,1)"><path fill="none" stroke="#000000" d="M 880 184 L 940.59375 184 L 940.59375 231 L 880 231 L 880 184 Z Z" stroke-miterlimit="10"/></g><g transform="translate(-8,2) scale(1,1)"><path fill="none" stroke="#000000" d="M 880 212 L 940.59375 212" stroke-miterlimit="10"/></g><g transform="translate(-8,2) scale(1,1)"><path fill="none" stroke="#000000" d="M 880 222 L 940.59375 222" stroke-miterlimit="10"/></g><g transform="translate(-8,2) scale(1,1)"><g><path fill="none" stroke="none"/><text fill="#000000" stroke="none" font-family="Arial" font-size="16px" font-style="normal" font-weight="bold" text-decoration="none" x="897.3984375" y="206.5">Jeu</text></g></g><g transform="translate(-8,2) scale(1,1)"><path fill="none" stroke="#000000" d="M 856 80 L 720 80" stroke-miterlimit="10"/></g><g transform="translate(-8,2) scale(1,1)"><path fill="#000000" stroke="none" d="M 730.1626748576241 75.79048224398402 L 720 80 L 730.1626748576241 84.20951775601598 L 742 80"/></g><g transform="translate(-8,2) scale(1,1)"><path fill="none" stroke="#000000" d="M 730.1626748576241 75.79048224398402 L 720 80 L 730.1626748576241 84.20951775601598 L 742 80 L 730.1626748576241 75.79048224398402" stroke-miterlimit="10"/></g><g transform="translate(-8,2) scale(1,1)"><path fill="none" stroke="#000000" d="M 880 209 L 680 209" stroke-miterlimit="10" stroke-dasharray="3"/></g><g transform="translate(-8,2) scale(1,1)"><path fill="#FFFFFF" stroke="none" d="M 700.3253497152483 200.58096448796803 L 680 209 L 700.3253497152483 217.41903551203197"/></g><g transform="translate(-8,2) scale(1,1)"><path fill="none" stroke="#000000" d="M 700.3253497152483 200.58096448796803 L 680 209 L 700.3253497152483 217.41903551203197 L 700.3253497152483 200.58096448796803" stroke-miterlimit="10"/></g><g transform="translate(-8,2) scale(1,1)"><path fill="none" stroke="#000000" d="M 912 184 L 912 111" stroke-miterlimit="10"/></g><g transform="translate(-8,2) scale(1,1)"><path fill="#000000" stroke="none" d="M 916.209517756016 121.16267485762415 L 912 111 L 907.790482243984 121.16267485762415 L 912 133"/></g><g transform="translate(-8,2) scale(1,1)"><path fill="none" stroke="#000000" d="M 916.209517756016 121.16267485762415 L 912 111 L 907.790482243984 121.16267485762415 L 912 133 L 916.209517756016 121.16267485762415" stroke-miterlimit="10"/></g><g transform="translate(-8,2) scale(1,1)"><rect fill="#C0C0C0" stroke="none" x="583" y="375" width="126.6171875" height="53" opacity="0.2"/></g><g transform="translate(-8,2) scale(1,1)"><rect fill="#a3e0ff" stroke="none" x="576" y="368" width="126.6171875" height="53"/></g><g transform="translate(-8,2) scale(1,1)"><path fill="none" stroke="#000000" d="M 576 368 L 702.6171875 368 L 702.6171875 421 L 576 421 L 576 368 Z Z" stroke-miterlimit="10"/></g><g transform="translate(-8,2) scale(1,1)"><path fill="none" stroke="#000000" d="M 576 412 L 702.6171875 412" stroke-miterlimit="10"/></g><g transform="translate(-8,2) scale(1,1)"><g><path fill="none" stroke="none"/><text fill="#000000" stroke="none" font-family="Arial" font-size="16px" font-style="normal" font-weight="normal" text-decoration="none" x="599.7265625" y="388.5">«interface»</text></g></g><g transform="translate(-8,2) scale(1,1)"><g><path fill="none" stroke="none"/><text fill="#000000" stroke="none" font-family="Arial" font-size="16px" font-style="normal" font-weight="bold" text-decoration="none" x="584.01953125" y="406.5">ICouleurWagon</text></g></g><g transform="translate(-8,2) scale(1,1)"><rect fill="#C0C0C0" stroke="none" x="609" y="287" width="88.1640625" height="56" opacity="0.2"/></g><g transform="translate(-8,2) scale(1,1)"><rect fill="#a3e0ff" stroke="none" x="602" y="280" width="88.1640625" height="56"/></g><g transform="translate(-8,2) scale(1,1)"><path fill="none" stroke="#000000" d="M 602 280 L 690.1640625 280 L 690.1640625 336 L 602 336 L 602 280 Z Z" stroke-miterlimit="10"/></g><g transform="translate(-8,2) scale(1,1)"><path fill="none" stroke="#000000" d="M 602 324 L 690.1640625 324" stroke-miterlimit="10"/></g><g transform="translate(-8,2) scale(1,1)"><g><path fill="none" stroke="none"/><text fill="#000000" stroke="none" font-family="Arial" font-size="16px" font-style="normal" font-weight="normal" text-decoration="none" x="606.5" y="300.5">«interface»</text></g></g><g transform="translate(-8,2) scale(1,1)"><g><path fill="none" stroke="none"/><text fill="#000000" stroke="none" font-family="Arial" font-size="16px" font-style="normal" font-weight="bold" text-decoration="none" x="619.3984375" y="318.5">IJoueur</text></g></g><g transform="translate(-8,2) scale(1,1)"><rect fill="#C0C0C0" stroke="none" x="603" y="463" width="100.5625" height="53" opacity="0.2"/></g><g transform="translate(-8,2) scale(1,1)"><rect fill="#a3e0ff" stroke="none" x="596" y="456" width="100.5625" height="53"/></g><g transform="translate(-8,2) scale(1,1)"><path fill="none" stroke="#000000" d="M 596 456 L 696.5625 456 L 696.5625 509 L 596 509 L 596 456 Z Z" stroke-miterlimit="10"/></g><g transform="translate(-8,2) scale(1,1)"><path fill="none" stroke="#000000" d="M 596 500 L 696.5625 500" stroke-miterlimit="10"/></g><g transform="translate(-8,2) scale(1,1)"><g><path fill="none" stroke="none"/><text fill="#000000" stroke="none" font-family="Arial" font-size="16px" font-style="normal" font-weight="normal" text-decoration="none" x="606.69921875" y="476.5">«interface»</text></g></g><g transform="translate(-8,2) scale(1,1)"><g><path fill="none" stroke="none"/><text fill="#000000" stroke="none" font-family="Arial" font-size="16px" font-style="normal" font-weight="bold" text-decoration="none" x="604.03515625" y="494.5">IDestination</text></g></g><g transform="translate(-8,2) scale(1,1)"><rect fill="#C0C0C0" stroke="none" x="615" y="543" width="88.1640625" height="53" opacity="0.2"/></g><g transform="translate(-8,2) scale(1,1)"><rect fill="#a3e0ff" stroke="none" x="608" y="536" width="88.1640625" height="53"/></g><g transform="translate(-8,2) scale(1,1)"><path fill="none" stroke="#000000" d="M 608 536 L 696.1640625 536 L 696.1640625 589 L 608 589 L 608 536 Z Z" stroke-miterlimit="10"/></g><g transform="translate(-8,2) scale(1,1)"><path fill="none" stroke="#000000" d="M 608 580 L 696.1640625 580" stroke-miterlimit="10"/></g><g transform="translate(-8,2) scale(1,1)"><g><path fill="none" stroke="none"/><text fill="#000000" stroke="none" font-family="Arial" font-size="16px" font-style="normal" font-weight="normal" text-decoration="none" x="612.5" y="556.5">«interface»</text></g></g><g transform="translate(-8,2) scale(1,1)"><g><path fill="none" stroke="none"/><text fill="#000000" stroke="none" font-family="Arial" font-size="16px" font-style="normal" font-weight="bold" text-decoration="none" x="628.51171875" y="574.5">IRoute</text></g></g><g transform="translate(-8,2) scale(1,1)"><rect fill="#C0C0C0" stroke="none" x="647" y="615" width="88.1640625" height="53" opacity="0.2"/></g><g transform="translate(-8,2) scale(1,1)"><rect fill="#a3e0ff" stroke="none" x="640" y="608" width="88.1640625" height="53"/></g><g transform="translate(-8,2) scale(1,1)"><path fill="none" stroke="#000000" d="M 640 608 L 728.1640625 608 L 728.1640625 661 L 640 661 L 640 608 Z Z" stroke-miterlimit="10"/></g><g transform="translate(-8,2) scale(1,1)"><path fill="none" stroke="#000000" d="M 640 652 L 728.1640625 652" stroke-miterlimit="10"/></g><g transform="translate(-8,2) scale(1,1)"><g><path fill="none" stroke="none"/><text fill="#000000" stroke="none" font-family="Arial" font-size="16px" font-style="normal" font-weight="normal" text-decoration="none" x="644.5" y="628.5">«interface»</text></g></g><g transform="translate(-8,2) scale(1,1)"><g><path fill="none" stroke="none"/><text fill="#000000" stroke="none" font-family="Arial" font-size="16px" font-style="normal" font-weight="bold" text-decoration="none" x="666.88671875" y="646.5">IVille</text></g></g><g transform="translate(-8,2) scale(1,1)"><path fill="none" stroke="#000000" d="M 191 296 L 602 296" stroke-miterlimit="10"/></g><g transform="translate(-8,2) scale(1,1)"><path fill="none" stroke="#000000" d="M 591.8373251423759 300.209517756016 L 602 296 L 591.8373251423758 291.790482243984" stroke-miterlimit="10"/></g><g transform="translate(-8,2) scale(1,1)"><path fill="none" stroke="#000000" d="M 459 400 L 576 400" stroke-miterlimit="10"/></g><g transform="translate(-8,2) scale(1,1)"><path fill="none" stroke="#000000" d="M 565.8373251423759 404.209517756016 L 576 400 L 565.8373251423758 395.790482243984" stroke-miterlimit="10"/></g><g transform="translate(-8,2) scale(1,1)"><path fill="none" stroke="#000000" d="M 277 482 L 596 482" stroke-miterlimit="10"/></g><g transform="translate(-8,2) scale(1,1)"><path fill="none" stroke="#000000" d="M 585.8373251423759 486.209517756016 L 596 482 L 585.8373251423758 477.790482243984" stroke-miterlimit="10"/></g><g transform="translate(-8,2) scale(1,1)"><path fill="none" stroke="#000000" d="M 280 360 L 280 320 L 602 320" stroke-miterlimit="10"/></g><g transform="translate(-8,2) scale(1,1)"><path fill="none" stroke="#000000" d="M 591.8373251423759 324.209517756016 L 602 320 L 591.8373251423758 315.790482243984" stroke-miterlimit="10"/></g><g transform="translate(-8,2) scale(1,1)"><path fill="none" stroke="#000000" d="M 343 560 L 608 560" stroke-miterlimit="10"/></g><g transform="translate(-8,2) scale(1,1)"><path fill="none" stroke="#000000" d="M 597.8373251423759 564.209517756016 L 608 560 L 597.8373251423758 555.790482243984" stroke-miterlimit="10"/></g><g transform="translate(-8,2) scale(1,1)"><path fill="none" stroke="#000000" d="M 343 592 L 568 592 L 568 632 L 640 632" stroke-miterlimit="10"/></g><g transform="translate(-8,2) scale(1,1)"><path fill="none" stroke="#000000" d="M 629.8373251423759 636.209517756016 L 640 632 L 629.8373251423758 627.790482243984" stroke-miterlimit="10"/></g><g transform="translate(-8,2) scale(1,1)"><rect fill="#C0C0C0" stroke="none" x="844" y="286" width="62.34375" height="47" opacity="0.2"/></g><g transform="translate(-8,2) scale(1,1)"><rect fill="#ffffff" stroke="none" x="837" y="279" width="62.34375" height="47"/></g><g transform="translate(-8,2) scale(1,1)"><path fill="none" stroke="#000000" d="M 837 279 L 899.34375 279 L 899.34375 326 L 837 326 L 837 279 Z Z" stroke-miterlimit="10"/></g><g transform="translate(-8,2) scale(1,1)"><path fill="none" stroke="#000000" d="M 837 307 L 899.34375 307" stroke-miterlimit="10"/></g><g transform="translate(-8,2) scale(1,1)"><path fill="none" stroke="#000000" d="M 837 317 L 899.34375 317" stroke-miterlimit="10"/></g><g transform="translate(-8,2) scale(1,1)"><g><path fill="none" stroke="none"/><text fill="#000000" stroke="none" font-family="Arial" font-size="16px" font-style="normal" font-weight="bold" text-decoration="none" x="843.7109375" y="301.5">Joueur</text></g></g><g transform="translate(-8,2) scale(1,1)"><path fill="none" stroke="#000000" d="M 837 305 L 690 305" stroke-miterlimit="10" stroke-dasharray="3"/></g><g transform="translate(-8,2) scale(1,1)"><path fill="#FFFFFF" stroke="none" d="M 710.3253497152483 296.580964487968 L 690 305 L 710.3253497152483 313.419035512032"/></g><g transform="translate(-8,2) scale(1,1)"><path fill="none" stroke="#000000" d="M 710.3253497152483 296.580964487968 L 690 305 L 710.3253497152483 313.419035512032 L 710.3253497152483 296.580964487968" stroke-miterlimit="10"/></g><g transform="translate(-8,2) scale(1,1)"><rect fill="#C0C0C0" stroke="none" x="879" y="615" width="50.919921875" height="44" opacity="0.2"/></g><g transform="translate(-8,2) scale(1,1)"><rect fill="#ffffff" stroke="none" x="872" y="608" width="50.919921875" height="44"/></g><g transform="translate(-8,2) scale(1,1)"><path fill="none" stroke="#000000" d="M 872 608 L 922.919921875 608 L 922.919921875 652 L 872 652 L 872 608 Z Z" stroke-miterlimit="10"/></g><g transform="translate(-8,2) scale(1,1)"><path fill="none" stroke="#000000" d="M 872 633 L 922.919921875 633" stroke-miterlimit="10"/></g><g transform="translate(-8,2) scale(1,1)"><path fill="none" stroke="#000000" d="M 872 643 L 922.919921875 643" stroke-miterlimit="10"/></g><g transform="translate(-8,2) scale(1,1)"><g><path fill="none" stroke="none"/><text fill="#000000" stroke="none" font-family="Arial" font-size="13px" font-style="normal" font-weight="bold" text-decoration="none" x="885.294677734375" y="627.5">Ville</text></g></g><g transform="translate(-8,2) scale(1,1)"><rect fill="#C0C0C0" stroke="none" x="879" y="535" width="50.919921875" height="44" opacity="0.2"/></g><g transform="translate(-8,2) scale(1,1)"><rect fill="#ffffff" stroke="none" x="872" y="528" width="50.919921875" height="44"/></g><g transform="translate(-8,2) scale(1,1)"><path fill="none" stroke="#000000" d="M 872 528 L 922.919921875 528 L 922.919921875 572 L 872 572 L 872 528 Z Z" stroke-miterlimit="10"/></g><g transform="translate(-8,2) scale(1,1)"><path fill="none" stroke="#000000" d="M 872 553 L 922.919921875 553" stroke-miterlimit="10"/></g><g transform="translate(-8,2) scale(1,1)"><path fill="none" stroke="#000000" d="M 872 563 L 922.919921875 563" stroke-miterlimit="10"/></g><g transform="translate(-8,2) scale(1,1)"><g><path fill="none" stroke="none"/><text fill="#000000" stroke="none" font-family="Arial" font-size="13px" font-style="normal" font-weight="bold" text-decoration="none" x="880.114990234375" y="547.5">Route</text></g></g><g transform="translate(-8,2) scale(1,1)"><rect fill="#C0C0C0" stroke="none" x="863" y="375" width="100.9521484375" height="47" opacity="0.2"/></g><g transform="translate(-8,2) scale(1,1)"><rect fill="#ffffff" stroke="none" x="856" y="368" width="100.9521484375" height="47"/></g><g transform="translate(-8,2) scale(1,1)"><path fill="none" stroke="#000000" d="M 856 368 L 956.9521484375 368 L 956.9521484375 415 L 856 415 L 856 368 Z Z" stroke-miterlimit="10"/></g><g transform="translate(-8,2) scale(1,1)"><path fill="none" stroke="#000000" d="M 856 406 L 956.9521484375 406" stroke-miterlimit="10"/></g><g transform="translate(-8,2) scale(1,1)"><g><path fill="none" stroke="none"/><text fill="#000000" stroke="none" font-family="Arial" font-size="13px" font-style="normal" font-weight="normal" text-decoration="none" x="863.112060546875" y="385.5">«enumeration»</text></g></g><g transform="translate(-8,2) scale(1,1)"><g><path fill="none" stroke="none"/><text fill="#000000" stroke="none" font-family="Arial" font-size="13px" font-style="normal" font-weight="bold" text-decoration="none" x="863.359619140625" y="400.5">CouleurWagon</text></g></g><g transform="translate(-8,2) scale(1,1)"><path fill="none" stroke="#000000" d="M 856 392 L 703 392" stroke-miterlimit="10" stroke-dasharray="3"/></g><g transform="translate(-8,2) scale(1,1)"><path fill="#FFFFFF" stroke="none" d="M 723.3253497152483 383.580964487968 L 703 392 L 723.3253497152483 400.419035512032"/></g><g transform="translate(-8,2) scale(1,1)"><path fill="none" stroke="#000000" d="M 723.3253497152483 383.580964487968 L 703 392 L 723.3253497152483 400.419035512032 L 723.3253497152483 383.580964487968" stroke-miterlimit="10"/></g><g transform="translate(-8,2) scale(1,1)"><path fill="none" stroke="#000000" d="M 872 550 L 696 550" stroke-miterlimit="10" stroke-dasharray="3"/></g><g transform="translate(-8,2) scale(1,1)"><path fill="#FFFFFF" stroke="none" d="M 716.3253497152483 541.580964487968 L 696 550 L 716.3253497152483 558.419035512032"/></g><g transform="translate(-8,2) scale(1,1)"><path fill="none" stroke="#000000" d="M 716.3253497152483 541.580964487968 L 696 550 L 716.3253497152483 558.419035512032 L 716.3253497152483 541.580964487968" stroke-miterlimit="10"/></g><g transform="translate(-8,2) scale(1,1)"><path fill="none" stroke="#000000" d="M 872 633 L 728 633" stroke-miterlimit="10" stroke-dasharray="3"/></g><g transform="translate(-8,2) scale(1,1)"><path fill="#FFFFFF" stroke="none" d="M 748.3253497152483 624.580964487968 L 728 633 L 748.3253497152483 641.419035512032"/></g><g transform="translate(-8,2) scale(1,1)"><path fill="none" stroke="#000000" d="M 748.3253497152483 624.580964487968 L 728 633 L 748.3253497152483 641.419035512032 L 748.3253497152483 624.580964487968" stroke-miterlimit="10"/></g><g transform="translate(-8,2) scale(1,1)"><rect fill="#C0C0C0" stroke="none" x="863" y="463" width="79.78271484375" height="44" opacity="0.2"/></g><g transform="translate(-8,2) scale(1,1)"><rect fill="#ffffff" stroke="none" x="856" y="456" width="79.78271484375" height="44"/></g><g transform="translate(-8,2) scale(1,1)"><path fill="none" stroke="#000000" d="M 856 456 L 935.78271484375 456 L 935.78271484375 500 L 856 500 L 856 456 Z Z" stroke-miterlimit="10"/></g><g transform="translate(-8,2) scale(1,1)"><path fill="none" stroke="#000000" d="M 856 481 L 935.78271484375 481" stroke-miterlimit="10"/></g><g transform="translate(-8,2) scale(1,1)"><path fill="none" stroke="#000000" d="M 856 491 L 935.78271484375 491" stroke-miterlimit="10"/></g><g transform="translate(-8,2) scale(1,1)"><g><path fill="none" stroke="none"/><text fill="#000000" stroke="none" font-family="Arial" font-size="13px" font-style="normal" font-weight="bold" text-decoration="none" x="863.372314453125" y="475.5">Destination</text></g></g><g transform="translate(-8,2) scale(1,1)"><path fill="none" stroke="#000000" d="M 856 478 L 697 478" stroke-miterlimit="10" stroke-dasharray="3"/></g><g transform="translate(-8,2) scale(1,1)"><path fill="#FFFFFF" stroke="none" d="M 717.3253497152483 469.580964487968 L 697 478 L 717.3253497152483 486.419035512032"/></g><g transform="translate(-8,2) scale(1,1)"><path fill="none" stroke="#000000" d="M 717.3253497152483 469.580964487968 L 697 478 L 717.3253497152483 486.419035512032 L 717.3253497152483 469.580964487968" stroke-miterlimit="10"/></g></g></svg>
